<?xml version="1.0" encoding="UTF-8"?>
<!DOCTYPE svg PUBLIC "-//W3C//DTD SVG 1.1//EN" "http://www.w3.org/Graphics/SVG/1.1/DTD/svg11.dtd">
<!-- Creator: CorelDRAW 2020 (64-Bit) -->
<svg xmlns="http://www.w3.org/2000/svg" xml:space="preserve" width="10.3187mm" height="10.3187mm" version="1.1" style="shape-rendering:geometricPrecision; text-rendering:geometricPrecision; image-rendering:optimizeQuality; fill-rule:evenodd; clip-rule:evenodd"
viewBox="0 0 85.44 85.44"
 xmlns:xlink="http://www.w3.org/1999/xlink"
 xmlns:xodm="http://www.corel.com/coreldraw/odm/2003">
 <defs>
  <style type="text/css">
   <![CDATA[
    .fil0 {fill:#FFED00}
    .fil1 {fill:#262A2B}
   ]]>
  </style>
 </defs>
 <g id="Capa_x0020_1">
  <metadata id="CorelCorpID_0Corel-Layer"/>
  <path class="fil0" d="M6.6 0l72.24 0c3.63,0 6.6,2.97 6.6,6.6l0 72.24c0,3.63 -2.97,6.6 -6.6,6.6l-72.24 0c-3.63,0 -6.6,-2.97 -6.6,-6.6l0 -72.24c0,-3.63 2.97,-6.6 6.6,-6.6zm-3.93 9.56l80.11 0c0.26,0 0.48,0.21 0.48,0.48l0 5.21c0,0.26 -0.21,0.48 -0.48,0.48l-80.11 0c-0.26,0 -0.48,-0.21 -0.48,-0.48l0 -5.21c0,-0.26 0.21,-0.48 0.48,-0.48z"/>
  <path class="fil1" d="M48.17 21.43l16.56 9.56c3.41,1.97 5.45,5.51 5.45,9.45l0 1.13 -27.48 0c-0.74,0 -1.33,0.25 -1.76,0.75 -0.43,0.5 -0.65,1.05 -0.65,1.66 0,0.74 0.24,1.33 0.72,1.76 0.48,0.43 1.05,0.65 1.69,0.65 1,0 1.97,0.14 2.88,0.43 0.92,0.29 1.76,0.69 2.53,1.19 1.29,0.9 2.33,2.05 3.1,3.45 0.77,1.4 1.16,2.92 1.16,4.56 0,1.35 -0.25,2.6 -0.77,3.77 -0.52,1.18 -1.22,2.2 -2.1,3.06 -0.88,0.87 -1.92,1.56 -3.09,2.05 -1.17,0.5 -2.4,0.75 -3.69,0.75l-13.32 0 11.48 6.63c1.16,0.67 2.5,0.67 3.66,0l16.56 -9.56c1.16,-0.67 1.83,-1.83 1.83,-3.17l0 -4.8 7.25 0 0 4.8c0,3.93 -2.05,7.48 -5.45,9.45l-16.56 9.56c-3.41,1.97 -7.5,1.97 -10.91,0l-16.56 -9.56c-3.41,-1.97 -5.45,-5.51 -5.45,-9.45l0 -1.13 21.13 0 6.35 0c0.68,0 1.24,-0.24 1.71,-0.72 0.47,-0.48 0.7,-1.05 0.7,-1.69 0,-0.64 -0.24,-1.21 -0.72,-1.69 -0.48,-0.48 -1.05,-0.72 -1.69,-0.72 -1.36,0 -2.62,-0.25 -3.8,-0.77 -1.18,-0.51 -2.2,-1.21 -3.08,-2.09 -0.87,-0.89 -1.54,-1.91 -2.05,-3.06 -0.5,-1.16 -0.75,-2.4 -0.75,-3.71 0,-1.31 0.25,-2.56 0.77,-3.73 0.52,-1.18 1.21,-2.2 2.07,-3.06 0.87,-0.87 1.89,-1.56 3.06,-2.08 1.17,-0.52 2.42,-0.77 3.74,-0.77l13.32 0 -11.48 -6.63c-1.16,-0.67 -2.5,-0.67 -3.66,0l-16.56 9.56c-1.16,0.67 -1.83,1.82 -1.83,3.17l0 4.8 -7.25 0 0 -4.8c0,-3.93 2.05,-7.48 5.45,-9.45l16.56 -9.56c3.41,-1.97 7.5,-1.97 10.91,0z"/>
 </g>
</svg>
